<mxfile host="app.diagrams.net" modified="2021-05-21T03:08:01.343Z" agent="5.0 (Windows NT 10.0; Win64; x64) AppleWebKit/537.36 (KHTML, like Gecko) Chrome/88.0.4324.104 Safari/537.36" etag="UTndo002XF013-Iol9u7" version="14.6.13" type="github">
  <diagram id="C5RBs43oDa-KdzZeNtuy" name="EXTQ005">
    <mxGraphModel dx="2249" dy="1874" grid="1" gridSize="10" guides="1" tooltips="1" connect="1" arrows="1" fold="1" page="1" pageScale="1" pageWidth="827" pageHeight="1169" math="0" shadow="0">
      <root>
        <mxCell id="WIyWlLk6GJQsqaUBKTNV-0" />
        <mxCell id="WIyWlLk6GJQsqaUBKTNV-1" parent="WIyWlLk6GJQsqaUBKTNV-0" />
        <mxCell id="B79RPfG7nG8Jz4gD_DPn-32" value="" style="rounded=1;whiteSpace=wrap;html=1;absoluteArcSize=1;arcSize=14;strokeWidth=2;dashed=1;align=left;" vertex="1" parent="WIyWlLk6GJQsqaUBKTNV-1">
          <mxGeometry x="-50" y="320" width="590" height="1060" as="geometry" />
        </mxCell>
        <mxCell id="B79RPfG7nG8Jz4gD_DPn-4" value="" style="edgeStyle=orthogonalEdgeStyle;rounded=0;orthogonalLoop=1;jettySize=auto;html=1;" edge="1" parent="WIyWlLk6GJQsqaUBKTNV-1" source="WIyWlLk6GJQsqaUBKTNV-3" target="B79RPfG7nG8Jz4gD_DPn-3">
          <mxGeometry relative="1" as="geometry" />
        </mxCell>
        <mxCell id="WIyWlLk6GJQsqaUBKTNV-3" value="通过&lt;span lang=&quot;EN-US&quot; style=&quot;font-size: 10pt ; font-family: &amp;#34;calibri&amp;#34; , sans-serif&quot;&gt;number&lt;/span&gt;&lt;span lang=&quot;EN-US&quot; style=&quot;font-size: 10pt ; font-family: &amp;#34;calibri&amp;#34; , sans-serif&quot;&gt;&lt;br&gt;+&lt;/span&gt;&lt;span lang=&quot;EN-US&quot; style=&quot;font-size: 10pt ; font-family: &amp;#34;calibri&amp;#34; , sans-serif&quot;&gt;corGoodsId查询主订单&lt;/span&gt;" style="rounded=1;whiteSpace=wrap;html=1;fontSize=12;glass=0;strokeWidth=1;shadow=0;" parent="WIyWlLk6GJQsqaUBKTNV-1" vertex="1">
          <mxGeometry x="160" y="50" width="120" height="70" as="geometry" />
        </mxCell>
        <mxCell id="B79RPfG7nG8Jz4gD_DPn-2" style="edgeStyle=orthogonalEdgeStyle;rounded=0;orthogonalLoop=1;jettySize=auto;html=1;" edge="1" parent="WIyWlLk6GJQsqaUBKTNV-1" source="B79RPfG7nG8Jz4gD_DPn-1" target="WIyWlLk6GJQsqaUBKTNV-3">
          <mxGeometry relative="1" as="geometry" />
        </mxCell>
        <mxCell id="B79RPfG7nG8Jz4gD_DPn-1" value="" style="shape=actor;whiteSpace=wrap;html=1;" vertex="1" parent="WIyWlLk6GJQsqaUBKTNV-1">
          <mxGeometry x="200" y="-50" width="40" height="60" as="geometry" />
        </mxCell>
        <mxCell id="B79RPfG7nG8Jz4gD_DPn-8" value="否" style="edgeStyle=orthogonalEdgeStyle;rounded=0;orthogonalLoop=1;jettySize=auto;html=1;" edge="1" parent="WIyWlLk6GJQsqaUBKTNV-1" source="B79RPfG7nG8Jz4gD_DPn-3" target="B79RPfG7nG8Jz4gD_DPn-7">
          <mxGeometry relative="1" as="geometry" />
        </mxCell>
        <mxCell id="B79RPfG7nG8Jz4gD_DPn-31" value="返回空的结果集" style="edgeStyle=orthogonalEdgeStyle;rounded=0;orthogonalLoop=1;jettySize=auto;html=1;" edge="1" parent="WIyWlLk6GJQsqaUBKTNV-1" source="B79RPfG7nG8Jz4gD_DPn-3" target="B79RPfG7nG8Jz4gD_DPn-28">
          <mxGeometry relative="1" as="geometry" />
        </mxCell>
        <mxCell id="B79RPfG7nG8Jz4gD_DPn-3" value="判断主订单集合是否为空" style="whiteSpace=wrap;html=1;rounded=1;shadow=0;strokeWidth=1;glass=0;" vertex="1" parent="WIyWlLk6GJQsqaUBKTNV-1">
          <mxGeometry x="160" y="205" width="120" height="60" as="geometry" />
        </mxCell>
        <mxCell id="B79RPfG7nG8Jz4gD_DPn-34" value="" style="edgeStyle=orthogonalEdgeStyle;rounded=0;orthogonalLoop=1;jettySize=auto;html=1;" edge="1" parent="WIyWlLk6GJQsqaUBKTNV-1" source="B79RPfG7nG8Jz4gD_DPn-7" target="B79RPfG7nG8Jz4gD_DPn-33">
          <mxGeometry relative="1" as="geometry" />
        </mxCell>
        <mxCell id="B79RPfG7nG8Jz4gD_DPn-7" value="循环遍历" style="whiteSpace=wrap;html=1;rounded=1;shadow=0;strokeWidth=1;glass=0;" vertex="1" parent="WIyWlLk6GJQsqaUBKTNV-1">
          <mxGeometry x="160" y="345" width="120" height="60" as="geometry" />
        </mxCell>
        <mxCell id="B79RPfG7nG8Jz4gD_DPn-16" value="" style="edgeStyle=orthogonalEdgeStyle;rounded=0;orthogonalLoop=1;jettySize=auto;html=1;" edge="1" parent="WIyWlLk6GJQsqaUBKTNV-1" source="B79RPfG7nG8Jz4gD_DPn-13" target="B79RPfG7nG8Jz4gD_DPn-15">
          <mxGeometry relative="1" as="geometry" />
        </mxCell>
        <mxCell id="B79RPfG7nG8Jz4gD_DPn-13" value="查询该主订单对应的权益包下的手动领取的权益" style="whiteSpace=wrap;html=1;rounded=1;shadow=0;strokeWidth=1;glass=0;" vertex="1" parent="WIyWlLk6GJQsqaUBKTNV-1">
          <mxGeometry x="160" y="730" width="120" height="60" as="geometry" />
        </mxCell>
        <mxCell id="B79RPfG7nG8Jz4gD_DPn-27" style="edgeStyle=orthogonalEdgeStyle;rounded=0;orthogonalLoop=1;jettySize=auto;html=1;" edge="1" parent="WIyWlLk6GJQsqaUBKTNV-1" source="B79RPfG7nG8Jz4gD_DPn-15" target="B79RPfG7nG8Jz4gD_DPn-25">
          <mxGeometry relative="1" as="geometry" />
        </mxCell>
        <mxCell id="B79RPfG7nG8Jz4gD_DPn-15" value="求子订单集合与手动领取集合的差集" style="whiteSpace=wrap;html=1;rounded=1;shadow=0;strokeWidth=1;glass=0;" vertex="1" parent="WIyWlLk6GJQsqaUBKTNV-1">
          <mxGeometry x="160" y="870" width="120" height="60" as="geometry" />
        </mxCell>
        <mxCell id="B79RPfG7nG8Jz4gD_DPn-20" value="" style="edgeStyle=orthogonalEdgeStyle;rounded=0;orthogonalLoop=1;jettySize=auto;html=1;" edge="1" parent="WIyWlLk6GJQsqaUBKTNV-1" source="B79RPfG7nG8Jz4gD_DPn-17" target="B79RPfG7nG8Jz4gD_DPn-19">
          <mxGeometry relative="1" as="geometry" />
        </mxCell>
        <mxCell id="B79RPfG7nG8Jz4gD_DPn-17" value="判断差集中是否包含&lt;span style=&quot;font-family: &amp;#34;calibri&amp;#34; , sans-serif ; font-size: 13.3333px&quot;&gt;goodsId[]中的ID&lt;/span&gt;" style="whiteSpace=wrap;html=1;rounded=1;shadow=0;strokeWidth=1;glass=0;" vertex="1" parent="WIyWlLk6GJQsqaUBKTNV-1">
          <mxGeometry x="160" y="1155" width="120" height="60" as="geometry" />
        </mxCell>
        <mxCell id="B79RPfG7nG8Jz4gD_DPn-30" style="edgeStyle=orthogonalEdgeStyle;rounded=0;orthogonalLoop=1;jettySize=auto;html=1;" edge="1" parent="WIyWlLk6GJQsqaUBKTNV-1" source="B79RPfG7nG8Jz4gD_DPn-19" target="B79RPfG7nG8Jz4gD_DPn-28">
          <mxGeometry relative="1" as="geometry" />
        </mxCell>
        <mxCell id="B79RPfG7nG8Jz4gD_DPn-19" value="将包含的放入结果集中" style="whiteSpace=wrap;html=1;rounded=1;shadow=0;strokeWidth=1;glass=0;" vertex="1" parent="WIyWlLk6GJQsqaUBKTNV-1">
          <mxGeometry x="160" y="1295" width="120" height="60" as="geometry" />
        </mxCell>
        <mxCell id="B79RPfG7nG8Jz4gD_DPn-23" value="不为空" style="edgeStyle=orthogonalEdgeStyle;rounded=0;orthogonalLoop=1;jettySize=auto;html=1;" edge="1" parent="WIyWlLk6GJQsqaUBKTNV-1" source="B79RPfG7nG8Jz4gD_DPn-25" target="B79RPfG7nG8Jz4gD_DPn-17">
          <mxGeometry relative="1" as="geometry">
            <mxPoint x="220" y="1153" as="targetPoint" />
          </mxGeometry>
        </mxCell>
        <mxCell id="B79RPfG7nG8Jz4gD_DPn-24" value="为空" style="edgeStyle=orthogonalEdgeStyle;rounded=0;orthogonalLoop=1;jettySize=auto;html=1;" edge="1" parent="WIyWlLk6GJQsqaUBKTNV-1" source="B79RPfG7nG8Jz4gD_DPn-25" target="B79RPfG7nG8Jz4gD_DPn-26">
          <mxGeometry relative="1" as="geometry" />
        </mxCell>
        <mxCell id="B79RPfG7nG8Jz4gD_DPn-25" value="判断&lt;span lang=&quot;EN-US&quot; style=&quot;font-size: 10pt ; font-family: &amp;#34;calibri&amp;#34; , sans-serif&quot;&gt;goodsId[]资源ID是否为空&lt;/span&gt;" style="whiteSpace=wrap;html=1;rounded=1;shadow=0;strokeWidth=1;glass=0;" vertex="1" parent="WIyWlLk6GJQsqaUBKTNV-1">
          <mxGeometry x="160" y="1013" width="120" height="60" as="geometry" />
        </mxCell>
        <mxCell id="B79RPfG7nG8Jz4gD_DPn-29" value="" style="edgeStyle=orthogonalEdgeStyle;rounded=0;orthogonalLoop=1;jettySize=auto;html=1;" edge="1" parent="WIyWlLk6GJQsqaUBKTNV-1" source="B79RPfG7nG8Jz4gD_DPn-26" target="B79RPfG7nG8Jz4gD_DPn-28">
          <mxGeometry relative="1" as="geometry" />
        </mxCell>
        <mxCell id="B79RPfG7nG8Jz4gD_DPn-26" value="将差集放入结果集" style="whiteSpace=wrap;html=1;rounded=1;shadow=0;strokeWidth=1;glass=0;" vertex="1" parent="WIyWlLk6GJQsqaUBKTNV-1">
          <mxGeometry x="390" y="1013" width="120" height="60" as="geometry" />
        </mxCell>
        <mxCell id="B79RPfG7nG8Jz4gD_DPn-28" value="返回结果集" style="whiteSpace=wrap;html=1;rounded=1;shadow=0;strokeWidth=1;glass=0;" vertex="1" parent="WIyWlLk6GJQsqaUBKTNV-1">
          <mxGeometry x="540" y="1440" width="120" height="60" as="geometry" />
        </mxCell>
        <mxCell id="B79RPfG7nG8Jz4gD_DPn-37" value="点播订单" style="edgeStyle=orthogonalEdgeStyle;rounded=0;orthogonalLoop=1;jettySize=auto;html=1;" edge="1" parent="WIyWlLk6GJQsqaUBKTNV-1" source="B79RPfG7nG8Jz4gD_DPn-33" target="B79RPfG7nG8Jz4gD_DPn-36">
          <mxGeometry relative="1" as="geometry" />
        </mxCell>
        <mxCell id="B79RPfG7nG8Jz4gD_DPn-39" value="包月订单" style="edgeStyle=orthogonalEdgeStyle;rounded=0;orthogonalLoop=1;jettySize=auto;html=1;" edge="1" parent="WIyWlLk6GJQsqaUBKTNV-1" source="B79RPfG7nG8Jz4gD_DPn-33" target="B79RPfG7nG8Jz4gD_DPn-38">
          <mxGeometry relative="1" as="geometry" />
        </mxCell>
        <mxCell id="B79RPfG7nG8Jz4gD_DPn-33" value="判断订单类型" style="whiteSpace=wrap;html=1;rounded=1;shadow=0;strokeWidth=1;glass=0;" vertex="1" parent="WIyWlLk6GJQsqaUBKTNV-1">
          <mxGeometry x="160" y="485" width="120" height="60" as="geometry" />
        </mxCell>
        <mxCell id="B79RPfG7nG8Jz4gD_DPn-40" style="edgeStyle=orthogonalEdgeStyle;rounded=0;orthogonalLoop=1;jettySize=auto;html=1;" edge="1" parent="WIyWlLk6GJQsqaUBKTNV-1" source="B79RPfG7nG8Jz4gD_DPn-36" target="B79RPfG7nG8Jz4gD_DPn-13">
          <mxGeometry relative="1" as="geometry">
            <mxPoint x="220" y="740" as="targetPoint" />
          </mxGeometry>
        </mxCell>
        <mxCell id="B79RPfG7nG8Jz4gD_DPn-36" value="&lt;span&gt;查询该主订单下的子订单状态为开通中、已开通的订单&lt;/span&gt;" style="whiteSpace=wrap;html=1;rounded=1;shadow=0;strokeWidth=1;glass=0;" vertex="1" parent="WIyWlLk6GJQsqaUBKTNV-1">
          <mxGeometry x="-30" y="600" width="120" height="60" as="geometry" />
        </mxCell>
        <mxCell id="B79RPfG7nG8Jz4gD_DPn-41" style="edgeStyle=orthogonalEdgeStyle;rounded=0;orthogonalLoop=1;jettySize=auto;html=1;" edge="1" parent="WIyWlLk6GJQsqaUBKTNV-1" source="B79RPfG7nG8Jz4gD_DPn-38" target="B79RPfG7nG8Jz4gD_DPn-13">
          <mxGeometry relative="1" as="geometry">
            <mxPoint x="220" y="740" as="targetPoint" />
          </mxGeometry>
        </mxCell>
        <mxCell id="B79RPfG7nG8Jz4gD_DPn-38" value="&lt;span&gt;查询该主订单下当月的子订单状态为开通中、已开通的订单&lt;/span&gt;" style="whiteSpace=wrap;html=1;rounded=1;shadow=0;strokeWidth=1;glass=0;" vertex="1" parent="WIyWlLk6GJQsqaUBKTNV-1">
          <mxGeometry x="354" y="600" width="120" height="60" as="geometry" />
        </mxCell>
        <mxCell id="B79RPfG7nG8Jz4gD_DPn-42" value="主订单的循环" style="text;html=1;strokeColor=none;fillColor=none;align=center;verticalAlign=middle;whiteSpace=wrap;rounded=0;dashed=1;fontStyle=1;fontSize=18;" vertex="1" parent="WIyWlLk6GJQsqaUBKTNV-1">
          <mxGeometry x="-50" y="290" width="140" height="20" as="geometry" />
        </mxCell>
      </root>
    </mxGraphModel>
  </diagram>
</mxfile>
